# Blender v2.82 (sub 7) OBJ File: ''
# www.blender.org
mtllib cannon_inner.mtl
o cannon_inner
v 0.177052 1.567937 -0.713037
v 0.102816 1.518238 -0.685021
v -0.091101 1.518238 -0.685021
v -0.165336 1.567937 -0.713037
v -0.316133 1.545909 -0.713037
v -0.371377 1.475702 -0.685021
v -0.555804 1.415778 -0.685021
v -0.641763 1.440105 -0.713037
v -0.778373 1.372556 -0.713037
v -0.809218 1.288714 -0.685021
v -0.966101 1.174732 -0.685021
v -1.055370 1.171306 -0.713037
v -1.164419 1.064848 -0.713037
v -1.167847 0.975577 -0.685021
v -1.281829 0.818695 -0.685021
v -1.365670 0.787850 -0.713037
v -1.436485 0.652905 -0.713037
v -1.412158 0.566945 -0.685021
v -1.472082 0.382518 -0.685021
v -1.542289 0.327275 -0.713037
v -1.545908 -0.316134 -0.713037
v -1.475702 -0.371378 -0.685021
v -1.415778 -0.555805 -0.685021
v -1.440105 -0.641764 -0.713037
v -1.372555 -0.778373 -0.713037
v -1.288713 -0.809219 -0.685021
v -1.174731 -0.966101 -0.685021
v -1.171305 -1.055371 -0.713037
v -1.064847 -1.164420 -0.713037
v -0.975577 -1.167847 -0.685021
v -0.818694 -1.281829 -0.685021
v -0.787849 -1.365671 -0.713037
v -0.652904 -1.436485 -0.713037
v -0.566944 -1.412159 -0.685021
v -0.382517 -1.472082 -0.685021
v -0.327274 -1.542289 -0.713037
v -0.177050 -1.567937 -0.713037
v -0.102814 -1.518238 -0.685021
v 0.091103 -1.518238 -0.685021
v 0.165338 -1.567937 -0.713037
v 0.316135 -1.545908 -0.713037
v 0.371379 -1.475701 -0.685021
v 0.555806 -1.415777 -0.685021
v 0.641765 -1.440104 -0.713037
v 0.778374 -1.372555 -0.713037
v 0.809220 -1.288713 -0.685021
v 0.966102 -1.174731 -0.685021
v 1.055372 -1.171304 -0.713037
v 1.164421 -1.064846 -0.713037
v 1.167848 -0.975576 -0.685021
v 1.281830 -0.818693 -0.685021
v 1.365672 -0.787848 -0.713037
v 1.436486 -0.652903 -0.713037
v 1.412159 -0.566943 -0.685021
v 1.472083 -0.382516 -0.685021
v 1.542289 -0.327272 -0.713037
v 1.545908 0.316136 -0.713037
v 1.475701 0.371380 -0.685021
v 1.415777 0.555807 -0.685021
v 1.440104 0.641766 -0.713037
v 1.372554 0.778375 -0.713037
v 1.288712 0.809221 -0.685021
v 1.174730 0.966103 -0.685021
v 1.171304 1.055373 -0.713037
v 1.064846 1.164421 -0.713037
v 0.975575 1.167849 -0.685021
v 0.818692 1.281831 -0.685021
v 0.787847 1.365672 -0.713037
v 0.652902 1.436486 -0.713037
v 0.566942 1.412159 -0.685021
v 0.382515 1.472083 -0.685021
v 0.327271 1.542290 -0.713037
v 0.177053 1.567936 0.713037
v -0.165336 1.567937 0.713037
v -0.091101 1.518238 0.685021
v 0.102816 1.518237 0.685021
v -0.316132 1.545908 0.713037
v -0.641764 1.440105 0.713037
v -0.555804 1.415778 0.685021
v -0.371378 1.475701 0.685021
v -0.778372 1.372556 0.713037
v -1.055370 1.171305 0.713037
v -0.966101 1.174732 0.685021
v -0.809218 1.288713 0.685021
v -1.164419 1.064848 0.713037
v -1.365670 0.787849 0.713037
v -1.281829 0.818695 0.685021
v -1.167846 0.975577 0.685021
v -1.436484 0.652905 0.713037
v -1.542289 0.327274 0.713037
v -1.472082 0.382518 0.685021
v -1.412158 0.566944 0.685021
v -1.545908 -0.316133 0.713037
v -1.440104 -0.641765 0.713037
v -1.415778 -0.555805 0.685021
v -1.475701 -0.371379 0.685021
v -1.372555 -0.778373 0.713037
v -1.171304 -1.055371 0.713037
v -1.174731 -0.966102 0.685021
v -1.288713 -0.809219 0.685021
v -1.064847 -1.164419 0.713037
v -0.787849 -1.365671 0.713037
v -0.818694 -1.281829 0.685021
v -0.975576 -1.167847 0.685021
v -0.652904 -1.436484 0.713037
v -0.327273 -1.542289 0.713037
v -0.382517 -1.472083 0.685021
v -0.566943 -1.412158 0.685021
v -0.177051 -1.567937 0.713037
v 0.165339 -1.567937 0.713037
v 0.091103 -1.518238 0.685021
v -0.102814 -1.518237 0.685021
v 0.316134 -1.545908 0.713037
v 0.641766 -1.440104 0.713037
v 0.555806 -1.415778 0.685021
v 0.371380 -1.475701 0.685021
v 0.778373 -1.372555 0.713037
v 1.055372 -1.171304 0.713037
v 0.966102 -1.174731 0.685021
v 0.809220 -1.288712 0.685021
v 1.164420 -1.064847 0.713037
v 1.365671 -0.787848 0.713037
v 1.281830 -0.818693 0.685021
v 1.167848 -0.975575 0.685021
v 1.436485 -0.652903 0.713037
v 1.542289 -0.327272 0.713037
v 1.472083 -0.382516 0.685021
v 1.412159 -0.566942 0.685021
v 1.545908 0.316135 0.713037
v 1.440103 0.641767 0.713037
v 1.415777 0.555807 0.685021
v 1.475700 0.371380 0.685021
v 1.372555 0.778374 0.713037
v 1.171303 1.055373 0.713037
v 1.174730 0.966103 0.685021
v 1.288712 0.809220 0.685021
v 1.064846 1.164421 0.713037
v 0.787847 1.365672 0.713037
v 0.818693 1.281831 0.685021
v 0.975574 1.167848 0.685021
v 0.652903 1.436485 0.713037
v 0.327271 1.542289 0.713037
v 0.382515 1.472083 0.685021
v 0.566941 1.412159 0.685021
vn 0.0000 -0.4911 -0.8711
vn 0.1517 -0.4670 -0.8711
vn 0.2886 -0.3973 -0.8711
vn 0.3973 -0.2886 -0.8711
vn 0.4670 -0.1517 -0.8711
vn 0.4670 0.1517 -0.8711
vn 0.3973 0.2886 -0.8711
vn 0.2886 0.3973 -0.8711
vn 0.1517 0.4670 -0.8711
vn 0.0000 0.4911 -0.8711
vn -0.1517 0.4670 -0.8711
vn -0.2886 0.3973 -0.8711
vn -0.3973 0.2886 -0.8711
vn -0.4670 0.1517 -0.8711
vn -0.4670 -0.1517 -0.8711
vn -0.3973 -0.2886 -0.8711
vn -0.2886 -0.3973 -0.8711
vn -0.1517 -0.4670 -0.8711
vn -0.0000 -0.4911 0.8711
vn 0.1517 -0.4670 0.8711
vn 0.2886 -0.3973 0.8711
vn 0.3973 -0.2886 0.8711
vn 0.4670 -0.1517 0.8711
vn 0.4670 0.1517 0.8711
vn 0.3973 0.2886 0.8711
vn 0.2886 0.3973 0.8711
vn 0.1517 0.4670 0.8711
vn 0.1518 0.4670 0.8711
vn 0.0000 0.4911 0.8711
vn -0.1517 0.4670 0.8711
vn -0.2886 0.3973 0.8711
vn -0.3973 0.2886 0.8711
vn -0.4670 0.1517 0.8711
vn -0.4670 -0.1517 0.8711
vn -0.3973 -0.2886 0.8711
vn -0.2886 -0.3973 0.8711
vn -0.1517 -0.4670 0.8711
vn 0.5563 -0.8310 -0.0000
vn 0.7859 -0.6184 -0.0000
vn 0.9385 -0.3453 -0.0000
vn 0.9993 -0.0384 -0.0000
vn 0.9622 0.2723 0.0000
vn 0.6184 0.7859 0.0000
vn 0.3453 0.9385 0.0000
vn 0.0384 0.9993 0.0000
vn -0.2723 0.9622 -0.0000
vn -0.5563 0.8310 -0.0000
vn -0.7859 0.6184 0.0000
vn -0.9385 0.3453 -0.0000
vn -0.9993 0.0384 -0.0000
vn -0.9622 -0.2723 0.0000
vn -0.6184 -0.7859 -0.0000
vn -0.3453 -0.9385 -0.0000
vn -0.0384 -0.9993 -0.0000
vn 0.2723 -0.9622 -0.0000
vn -0.0000 -1.0000 -0.0000
vn 0.3090 -0.9511 -0.0000
vn 0.5878 -0.8090 -0.0000
vn 0.8090 -0.5878 -0.0000
vn 0.9511 -0.3090 -0.0000
vn 0.9511 0.3090 0.0000
vn 0.8090 0.5878 0.0000
vn 0.5878 0.8090 0.0000
vn 0.3090 0.9511 0.0000
vn 0.0000 1.0000 0.0000
vn -0.3090 0.9511 0.0000
vn -0.5878 0.8090 0.0000
vn -0.8090 0.5878 0.0000
vn -0.9511 0.3090 0.0000
vn -0.9511 -0.3090 -0.0000
vn -0.8090 -0.5878 -0.0000
vn -0.5878 -0.8090 0.0000
vn -0.3090 -0.9511 -0.0000
vn -0.5563 -0.8310 -0.0000
vn -0.2723 -0.9622 -0.0000
vn 0.0384 -0.9993 -0.0000
vn 0.0383 -0.9993 -0.0000
vn 0.3453 -0.9385 -0.0000
vn 0.6184 -0.7859 -0.0000
vn 0.9622 -0.2723 -0.0000
vn 0.9993 0.0383 -0.0000
vn 0.9993 0.0384 0.0000
vn 0.9385 0.3453 0.0000
vn 0.7859 0.6184 -0.0000
vn 0.5563 0.8310 -0.0000
vn 0.2723 0.9622 -0.0000
vn -0.0384 0.9993 0.0000
vn -0.3453 0.9385 -0.0000
vn -0.6184 0.7859 0.0000
vn -0.9622 0.2723 -0.0000
vn -0.9993 -0.0383 -0.0000
vn -0.9993 -0.0384 -0.0000
vn -0.9385 -0.3453 -0.0000
vn -0.7859 -0.6184 -0.0000
usemtl Default_OBJ
s 1
f 1//1 2//1 3//1
f 1//1 3//1 4//1
f 5//2 6//2 7//2
f 5//2 7//2 8//2
f 9//3 10//3 11//3
f 9//3 11//3 12//3
f 13//4 14//4 15//4
f 13//4 15//4 16//4
f 17//5 18//5 19//5
f 17//5 19//5 20//5
f 21//6 22//6 23//6
f 21//6 23//6 24//6
f 25//7 26//7 27//7
f 25//7 27//7 28//7
f 29//8 30//8 31//8
f 29//8 31//8 32//8
f 33//9 34//9 35//9
f 33//9 35//9 36//9
f 37//10 38//10 39//10
f 37//10 39//10 40//10
f 41//11 42//11 43//11
f 41//11 43//11 44//11
f 45//12 46//12 47//12
f 45//12 47//12 48//12
f 49//13 50//13 51//13
f 49//13 51//13 52//13
f 53//14 54//14 55//14
f 53//14 55//14 56//14
f 57//15 58//15 59//15
f 57//15 59//15 60//15
f 61//16 62//16 63//16
f 61//16 63//16 64//16
f 65//17 66//17 67//17
f 65//17 67//17 68//17
f 69//18 70//18 71//18
f 69//18 71//18 72//18
f 73//19 74//19 75//19
f 73//19 75//19 76//19
f 77//20 78//20 79//20
f 77//20 79//20 80//20
f 81//21 82//21 83//21
f 81//21 83//21 84//21
f 85//22 86//22 87//22
f 85//22 87//22 88//22
f 89//23 90//23 91//23
f 89//23 91//23 92//23
f 93//24 94//24 95//24
f 93//24 95//24 96//24
f 97//25 98//25 99//25
f 97//25 99//25 100//25
f 101//26 102//26 103//26
f 101//26 103//26 104//26
f 105//27 106//28 107//28
f 105//27 107//28 108//27
f 109//29 110//29 111//29
f 109//29 111//29 112//29
f 113//30 114//30 115//30
f 113//30 115//30 116//30
f 117//31 118//31 119//31
f 117//31 119//31 120//31
f 121//32 122//32 123//32
f 121//32 123//32 124//32
f 125//33 126//33 127//33
f 125//33 127//33 128//33
f 129//34 130//34 131//34
f 129//34 131//34 132//34
f 133//35 134//35 135//35
f 133//35 135//35 136//35
f 137//36 138//36 139//36
f 137//36 139//36 140//36
f 141//37 142//37 143//37
f 141//37 143//37 144//37
f 1//38 73//38 76//38
f 1//38 76//38 2//38
f 5//39 77//39 80//39
f 5//39 80//39 6//39
f 9//40 81//40 84//40
f 9//40 84//40 10//40
f 13//41 85//41 88//41
f 13//41 88//41 14//41
f 17//42 89//42 92//42
f 17//42 92//42 18//42
f 21//43 93//43 96//43
f 21//43 96//43 22//43
f 25//44 97//44 100//44
f 25//44 100//44 26//44
f 29//45 101//45 104//45
f 29//45 104//45 30//45
f 33//46 105//46 108//46
f 33//46 108//46 34//46
f 37//47 109//47 112//47
f 37//47 112//47 38//47
f 41//48 113//48 116//48
f 41//48 116//48 42//48
f 45//49 117//49 120//49
f 45//49 120//49 46//49
f 49//50 121//50 124//50
f 49//50 124//50 50//50
f 53//51 125//51 128//51
f 53//51 128//51 54//51
f 57//52 129//52 132//52
f 57//52 132//52 58//52
f 61//53 133//53 136//53
f 61//53 136//53 62//53
f 65//54 137//54 140//54
f 65//54 140//54 66//54
f 69//55 141//55 144//55
f 69//55 144//55 70//55
f 2//56 76//56 75//56
f 2//56 75//56 3//56
f 6//57 80//57 79//57
f 6//57 79//57 7//57
f 10//58 84//58 83//58
f 10//58 83//58 11//58
f 14//59 88//59 87//59
f 14//59 87//59 15//59
f 18//60 92//60 91//60
f 18//60 91//60 19//60
f 22//61 96//61 95//61
f 22//61 95//61 23//61
f 26//62 100//62 99//62
f 26//62 99//62 27//62
f 30//63 104//63 103//63
f 30//63 103//63 31//63
f 34//64 108//64 107//64
f 34//64 107//64 35//64
f 38//65 112//65 111//65
f 38//65 111//65 39//65
f 42//66 116//66 115//66
f 42//66 115//66 43//66
f 46//67 120//67 119//67
f 46//67 119//67 47//67
f 50//68 124//68 123//68
f 50//68 123//68 51//68
f 54//69 128//69 127//69
f 54//69 127//69 55//69
f 58//70 132//70 131//70
f 58//70 131//70 59//70
f 62//71 136//71 135//71
f 62//71 135//71 63//71
f 66//72 140//72 139//72
f 66//72 139//72 67//72
f 70//73 144//73 143//73
f 70//73 143//73 71//73
f 3//74 75//74 74//74
f 3//74 74//74 4//74
f 7//75 79//75 78//75
f 7//75 78//75 8//75
f 11//76 83//76 82//76
f 11//76 82//76 12//77
f 15//78 87//78 86//78
f 15//78 86//78 16//78
f 19//79 91//79 90//79
f 19//79 90//79 20//79
f 23//80 95//80 94//80
f 23//80 94//80 24//80
f 27//81 99//82 98//82
f 27//81 98//82 28//81
f 31//83 103//83 102//83
f 31//83 102//83 32//83
f 35//84 107//84 106//84
f 35//84 106//84 36//84
f 39//85 111//85 110//85
f 39//85 110//85 40//85
f 43//86 115//86 114//86
f 43//86 114//86 44//86
f 47//87 119//87 118//87
f 47//87 118//87 48//87
f 51//88 123//88 122//88
f 51//88 122//88 52//88
f 55//89 127//89 126//89
f 55//89 126//89 56//89
f 59//90 131//90 130//90
f 59//90 130//90 60//90
f 63//91 135//92 134//92
f 63//91 134//92 64//91
f 67//93 139//93 138//93
f 67//93 138//93 68//93
f 71//94 143//94 142//94
f 71//94 142//94 72//94
