# Blender v2.82 (sub 7) OBJ File: ''
# www.blender.org
mtllib cannon_outer.mtl
o cannon_outer
v -1.717154 -0.243853 1.160058
v -1.734395 -0.243853 -1.052267
v -1.440249 -0.154975 -0.518599
v -1.440249 -0.154975 0.518599
v 1.440249 -0.154975 -0.518599
v 1.734395 -0.243853 -1.052267
v 1.717154 -0.243853 1.160058
v 1.440249 -0.154975 0.518599
v -1.723306 0.253090 -1.036291
v -1.717154 0.253092 1.160058
v -1.440248 0.164212 0.518599
v -1.440249 0.164213 -0.518599
v 1.440248 0.164212 0.518599
v 1.717154 0.253092 1.160058
v 1.723306 0.253090 -1.036291
v 1.440249 0.164213 -0.518599
v -1.301833 0.098335 -0.249790
v -1.301833 -0.089098 -0.249790
v 1.301833 0.098335 -0.249790
v 1.301833 -0.089098 -0.249790
v -1.301833 -0.089098 0.249790
v -1.301832 0.098335 0.249790
v 1.301833 -0.089098 0.249790
v 1.301832 0.098335 0.249790
v -1.163501 -0.089098 -0.249790
v -1.163501 -0.089098 0.249790
v 1.163501 -0.089098 -0.249790
v 1.163501 -0.089098 0.249790
v -1.163501 0.098335 0.249790
v -1.163501 0.098335 -0.249790
v 1.163501 0.098335 0.249790
v 1.163501 0.098335 -0.249790
v -0.995103 0.014816 -0.026478
v -0.995103 -0.005579 -0.026478
v 0.995103 0.014816 -0.026478
v 0.995103 -0.005579 -0.026478
v -0.995103 -0.005579 0.026478
v -0.995103 0.014816 0.026478
v 0.995103 -0.005579 0.026478
v 0.995103 0.014816 0.026478
v 0.000000 1.769883 -1.474903
v 0.000003 1.769883 1.474903
v 0.345290 1.735875 1.474903
v 0.345287 1.735875 -1.474903
v 0.677308 1.635158 1.474903
v 0.677305 1.635159 -1.474903
v 0.983297 1.471602 1.474903
v 0.983294 1.471604 -1.474903
v 1.251499 1.251494 1.474903
v 1.251496 1.251496 -1.474903
v 1.471606 0.983292 1.474903
v 1.471604 0.983294 -1.474903
v 1.635160 0.677302 1.474903
v 1.635159 0.677305 -1.474903
v 1.735876 0.345283 1.474903
v 1.735875 0.345287 -1.474903
v 1.769883 -0.000004 1.474903
v 1.769883 0.000000 -1.474903
v 1.735875 -0.345290 1.474903
v 1.735875 -0.345287 -1.474903
v 1.635158 -0.677307 1.474903
v 1.635159 -0.677305 -1.474903
v 1.471603 -0.983296 1.474903
v 1.471604 -0.983294 -1.474903
v 1.251496 -1.251497 1.474903
v 1.251496 -1.251496 -1.474903
v 0.983294 -1.471604 1.474903
v 0.983294 -1.471604 -1.474903
v 0.677305 -1.635159 1.474903
v 0.677305 -1.635159 -1.474903
v 0.345288 -1.735875 1.474903
v 0.345287 -1.735875 -1.474903
v 0.000002 -1.769883 1.474903
v -0.000001 -1.769883 -1.474903
v -0.345285 -1.735876 1.474903
v -0.345288 -1.735875 -1.474903
v -0.677302 -1.635160 1.474903
v -0.677306 -1.635159 -1.474903
v -0.983291 -1.471606 1.474903
v -0.983295 -1.471604 -1.474903
v -1.251493 -1.251500 1.474903
v -1.251497 -1.251496 -1.474903
v -1.471601 -0.983299 1.474903
v -1.471605 -0.983293 -1.474903
v -1.635157 -0.677310 1.474903
v -1.635159 -0.677304 -1.474903
v -1.735874 -0.345294 1.474903
v -1.735876 -0.345286 -1.474903
v -1.769883 -0.000007 1.474903
v -1.769883 0.000002 -1.474903
v -1.735877 0.345279 1.474903
v -1.735875 0.345289 -1.474903
v -1.635162 0.677297 1.474903
v -1.635158 0.677307 -1.474903
v -1.471609 0.983287 1.474903
v -1.471603 0.983296 -1.474903
v -1.251504 1.251489 1.474903
v -1.251495 1.251498 -1.474903
v -0.983303 1.471598 1.474903
v -0.983292 1.471605 -1.474903
v -0.677316 1.635154 1.474903
v -0.677303 1.635160 -1.474903
v -0.345299 1.735873 1.474903
v -0.345284 1.735876 -1.474903
v 0.330904 1.663548 1.474903
v 0.000003 1.696140 1.474903
v 0.000000 1.696140 -1.474903
v 0.330901 1.663548 -1.474903
v 0.649088 1.567028 1.474903
v 0.649085 1.567029 -1.474903
v 0.942327 1.410287 1.474903
v 0.942325 1.410289 -1.474903
v 1.199355 1.199350 1.474903
v 1.199353 1.199353 -1.474903
v 1.410291 0.942322 1.474903
v 1.410289 0.942325 -1.474903
v 1.567030 0.649081 1.474903
v 1.567029 0.649085 -1.474903
v 1.663549 0.330898 1.474903
v 1.663548 0.330901 -1.474903
v 1.696138 -0.000004 1.474903
v 1.696138 0.000000 -1.474903
v 1.663547 -0.330905 1.474903
v 1.663548 -0.330901 -1.474903
v 1.567028 -0.649087 1.474903
v 1.567029 -0.649085 -1.474903
v 1.410288 -0.942326 1.474903
v 1.410289 -0.942325 -1.474903
v 1.199352 -1.199353 1.474903
v 1.199353 -1.199353 -1.474903
v 0.942324 -1.410289 1.474903
v 0.942325 -1.410289 -1.474903
v 0.649085 -1.567029 1.474903
v 0.649085 -1.567029 -1.474903
v 0.330902 -1.663548 1.474903
v 0.330901 -1.663548 -1.474903
v 0.000002 -1.696138 1.474903
v -0.000001 -1.696138 -1.474903
v -0.330899 -1.663549 1.474903
v -0.330902 -1.663548 -1.474903
v -0.649082 -1.567030 1.474903
v -0.649086 -1.567029 -1.474903
v -0.942321 -1.410291 1.474903
v -0.942325 -1.410288 -1.474903
v -1.199349 -1.199356 1.474903
v -1.199353 -1.199352 -1.474903
v -1.410286 -0.942329 1.474903
v -1.410290 -0.942324 -1.474903
v -1.567027 -0.649090 1.474903
v -1.567030 -0.649084 -1.474903
v -1.663547 -0.330908 1.474903
v -1.663548 -0.330900 -1.474903
v -1.696140 -0.000007 1.474903
v -1.696140 0.000002 -1.474903
v -1.663550 0.330893 1.474903
v -1.663548 0.330903 -1.474903
v -1.567032 0.649077 1.474903
v -1.567028 0.649087 -1.474903
v -1.410294 0.942317 1.474903
v -1.410288 0.942326 -1.474903
v -1.199360 1.199345 1.474903
v -1.199351 1.199354 -1.474903
v -0.942334 1.410283 1.474903
v -0.942323 1.410290 -1.474903
v -0.649095 1.567025 1.474903
v -0.649082 1.567030 -1.474903
v -0.330913 1.663546 1.474903
v -0.330899 1.663549 -1.474903
vn 0.2970 -0.9549 -0.0016
vn -0.2969 -0.9549 -0.0016
vn -0.2970 -0.9549 -0.0016
vn 0.3024 0.9532 -0.0006
vn 0.3025 0.9531 -0.0006
vn -0.3025 0.9531 -0.0006
vn -0.3025 0.9532 -0.0006
vn -0.3024 0.9532 -0.0006
vn 0.9181 -0.0000 0.3963
vn -0.9181 0.0000 0.3963
vn 0.8891 -0.0000 -0.4578
vn -0.8891 0.0000 -0.4578
vn 0.8891 -0.0000 0.4578
vn -0.8891 -0.0000 0.4578
vn 0.4297 0.9029 -0.0000
vn 0.4298 0.9029 -0.0000
vn -0.4297 0.9029 0.0000
vn -0.4298 0.9029 -0.0000
vn 0.4297 -0.9030 -0.0000
vn 0.4297 -0.9029 -0.0000
vn -0.4297 -0.9029 -0.0000
vn -0.4297 -0.9030 -0.0000
vn 0.0000 -1.0000 -0.0000
vn 0.0000 1.0000 0.0000
vn 0.0000 -0.0000 1.0000
vn 0.0000 0.0000 -1.0000
vn 0.7984 -0.0000 -0.6021
vn -0.7984 0.0000 -0.6021
vn 0.7984 -0.0000 0.6021
vn -0.7984 -0.0000 0.6021
vn 0.4443 0.8959 0.0000
vn -0.4443 0.8959 0.0000
vn 0.4443 -0.8959 -0.0000
vn -0.4443 -0.8959 -0.0000
vn 1.0000 -0.0000 0.0000
vn -1.0000 0.0000 0.0000
vn 0.0980 0.9952 0.0000
vn 0.2903 0.9569 0.0000
vn 0.4714 0.8819 0.0000
vn 0.6344 0.7730 -0.0000
vn 0.7730 0.6344 -0.0000
vn 0.8819 0.4714 0.0000
vn 0.9569 0.2903 0.0000
vn 0.9952 0.0980 0.0000
vn 0.9952 -0.0980 -0.0000
vn 0.9569 -0.2903 0.0000
vn 0.8819 -0.4714 -0.0000
vn 0.7730 -0.6344 -0.0000
vn 0.6344 -0.7730 -0.0000
vn 0.4714 -0.8819 -0.0000
vn 0.2903 -0.9569 -0.0000
vn 0.0980 -0.9952 -0.0000
vn -0.0980 -0.9952 -0.0000
vn -0.2903 -0.9569 -0.0000
vn -0.4714 -0.8819 -0.0000
vn -0.6344 -0.7730 -0.0000
vn -0.7730 -0.6344 -0.0000
vn -0.8819 -0.4714 -0.0000
vn -0.9569 -0.2903 -0.0000
vn -0.9952 -0.0980 -0.0000
vn -0.9952 0.0980 -0.0000
vn -0.9569 0.2903 -0.0000
vn -0.8819 0.4714 -0.0000
vn -0.7730 0.6344 -0.0000
vn -0.6344 0.7730 -0.0000
vn -0.4714 0.8819 -0.0000
vn -0.2903 0.9569 -0.0000
vn -0.0980 0.9952 0.0000
usemtl Default_OBJ.001
s 1
f 1//1 2//1 3//1
f 1//1 3//1 4//1
f 5//2 6//2 7//2
f 5//3 7//3 8//3
f 9//4 10//4 11//5
f 9//4 11//5 12//4
f 13//6 14//7 15//8
f 13//6 15//8 16//8
f 10//9 1//9 4//9
f 10//9 4//9 11//9
f 8//10 7//10 14//10
f 8//10 14//10 13//10
f 3//11 12//11 17//11
f 3//11 17//11 18//11
f 19//12 16//12 5//12
f 19//12 5//12 20//12
f 11//13 4//13 21//13
f 11//13 21//13 22//13
f 23//14 8//14 13//14
f 23//14 13//14 24//14
f 12//15 11//15 22//15
f 12//15 22//15 17//16
f 24//17 13//17 16//17
f 24//17 16//17 19//18
f 4//19 3//20 18//20
f 4//19 18//20 21//19
f 20//21 5//21 8//22
f 20//21 8//22 23//22
f 21//23 18//23 25//23
f 21//23 25//23 26//23
f 27//23 20//23 23//23
f 27//23 23//23 28//23
f 17//24 22//24 29//24
f 17//24 29//24 30//24
f 31//24 24//24 19//24
f 31//24 19//24 32//24
f 22//25 21//25 26//25
f 22//25 26//25 29//25
f 28//25 23//25 24//25
f 28//25 24//25 31//25
f 18//26 17//26 30//26
f 18//26 30//26 25//26
f 32//26 19//26 20//26
f 32//26 20//26 27//26
f 25//27 30//27 33//27
f 25//27 33//27 34//27
f 35//28 32//28 27//28
f 35//28 27//28 36//28
f 29//29 26//29 37//29
f 29//29 37//29 38//29
f 39//30 28//30 31//30
f 39//30 31//30 40//30
f 30//31 29//31 38//31
f 30//31 38//31 33//31
f 40//32 31//32 32//32
f 40//32 32//32 35//32
f 26//33 25//33 34//33
f 26//33 34//33 37//33
f 36//34 27//34 28//34
f 36//34 28//34 39//34
f 33//35 38//35 37//35
f 33//35 37//35 34//35
f 39//36 40//36 35//36
f 39//36 35//36 36//36
f 41//37 42//37 43//37
f 41//37 43//37 44//37
f 44//38 43//38 45//38
f 44//38 45//38 46//38
f 46//39 45//39 47//39
f 46//39 47//39 48//39
f 48//40 47//40 49//40
f 48//40 49//40 50//40
f 50//41 49//41 51//41
f 50//41 51//41 52//41
f 52//42 51//42 53//42
f 52//42 53//42 54//42
f 54//43 53//43 55//43
f 54//43 55//43 56//43
f 56//44 55//44 57//44
f 56//44 57//44 58//44
f 58//45 57//45 59//45
f 58//45 59//45 60//45
f 60//46 59//46 61//46
f 60//46 61//46 62//46
f 62//47 61//47 63//47
f 62//47 63//47 64//47
f 64//48 63//48 65//48
f 64//48 65//48 66//48
f 66//49 65//49 67//49
f 66//49 67//49 68//49
f 68//50 67//50 69//50
f 68//50 69//50 70//50
f 70//51 69//51 71//51
f 70//51 71//51 72//51
f 72//52 71//52 73//52
f 72//52 73//52 74//52
f 74//53 73//53 75//53
f 74//53 75//53 76//53
f 76//54 75//54 77//54
f 76//54 77//54 78//54
f 78//55 77//55 79//55
f 78//55 79//55 80//55
f 80//56 79//56 81//56
f 80//56 81//56 82//56
f 82//57 81//57 83//57
f 82//57 83//57 84//57
f 84//58 83//58 85//58
f 84//58 85//58 86//58
f 86//59 85//59 87//59
f 86//59 87//59 88//59
f 88//60 87//60 89//60
f 88//60 89//60 90//60
f 90//61 89//61 91//61
f 90//61 91//61 92//61
f 92//62 91//62 93//62
f 92//62 93//62 94//62
f 94//63 93//63 95//63
f 94//63 95//63 96//63
f 96//64 95//64 97//64
f 96//64 97//64 98//64
f 98//65 97//65 99//65
f 98//65 99//65 100//65
f 100//66 99//66 101//66
f 100//66 101//66 102//66
f 102//67 101//67 103//67
f 102//67 103//67 104//67
f 42//68 41//68 104//68
f 42//68 104//68 103//68
f 105//53 106//53 107//53
f 105//53 107//53 108//53
f 109//54 105//54 108//54
f 109//54 108//54 110//54
f 111//55 109//55 110//55
f 111//55 110//55 112//55
f 113//56 111//56 112//56
f 113//56 112//56 114//56
f 115//57 113//57 114//57
f 115//57 114//57 116//57
f 117//58 115//58 116//58
f 117//58 116//58 118//58
f 119//59 117//59 118//59
f 119//59 118//59 120//59
f 121//60 119//60 120//60
f 121//60 120//60 122//60
f 123//61 121//61 122//61
f 123//61 122//61 124//61
f 125//62 123//62 124//62
f 125//62 124//62 126//62
f 127//63 125//63 126//63
f 127//63 126//63 128//63
f 129//64 127//64 128//64
f 129//64 128//64 130//64
f 131//65 129//65 130//65
f 131//65 130//65 132//65
f 133//66 131//66 132//66
f 133//66 132//66 134//66
f 135//67 133//67 134//67
f 135//67 134//67 136//67
f 137//68 135//68 136//68
f 137//68 136//68 138//68
f 139//37 137//37 138//37
f 139//37 138//37 140//37
f 141//38 139//38 140//38
f 141//38 140//38 142//38
f 143//39 141//39 142//39
f 143//39 142//39 144//39
f 145//40 143//40 144//40
f 145//40 144//40 146//40
f 147//41 145//41 146//41
f 147//41 146//41 148//41
f 149//42 147//42 148//42
f 149//42 148//42 150//42
f 151//43 149//43 150//43
f 151//43 150//43 152//43
f 153//44 151//44 152//44
f 153//44 152//44 154//44
f 155//45 153//45 154//45
f 155//45 154//45 156//45
f 157//46 155//46 156//46
f 157//46 156//46 158//46
f 159//47 157//47 158//47
f 159//47 158//47 160//47
f 161//48 159//48 160//48
f 161//48 160//48 162//48
f 163//49 161//49 162//49
f 163//49 162//49 164//49
f 165//50 163//50 164//50
f 165//50 164//50 166//50
f 167//51 165//51 166//51
f 167//51 166//51 168//51
f 168//52 107//52 106//52
f 168//52 106//52 167//52
f 85//25 83//25 147//25
f 85//25 147//25 149//25
f 76//26 78//26 142//26
f 76//26 142//26 140//26
f 75//25 73//25 137//25
f 75//25 137//25 139//25
f 63//25 61//25 125//25
f 63//25 125//25 127//25
f 55//25 53//25 117//25
f 55//25 117//25 119//25
f 57//25 55//25 119//25
f 57//25 119//25 121//25
f 84//26 86//26 150//26
f 84//26 150//26 148//26
f 51//25 49//25 113//25
f 51//25 113//25 115//25
f 67//25 65//25 129//25
f 67//25 129//25 131//25
f 49//25 47//25 111//25
f 49//25 111//25 113//25
f 77//25 75//25 139//25
f 77//25 139//25 141//25
f 50//26 52//26 116//26
f 50//26 116//26 114//26
f 56//26 58//26 122//26
f 56//26 122//26 120//26
f 48//26 50//26 114//26
f 48//26 114//26 112//26
f 58//26 60//26 124//26
f 58//26 124//26 122//26
f 43//25 42//25 106//25
f 43//25 106//25 105//25
f 52//26 54//26 118//26
f 52//26 118//26 116//26
f 101//25 99//25 163//25
f 101//25 163//25 165//25
f 92//26 94//26 158//26
f 92//26 158//26 156//26
f 59//25 57//25 121//25
f 59//25 121//25 123//25
f 70//26 72//26 136//26
f 70//26 136//26 134//26
f 95//25 93//25 157//25
f 95//25 157//25 159//25
f 93//25 91//25 155//25
f 93//25 155//25 157//25
f 54//26 56//26 120//26
f 54//26 120//26 118//26
f 89//25 87//25 151//25
f 89//25 151//25 153//25
f 74//26 76//26 140//26
f 74//26 140//26 138//26
f 47//25 45//25 109//25
f 47//25 109//25 111//25
f 53//25 51//25 115//25
f 53//25 115//25 117//25
f 42//25 103//25 167//25
f 42//25 167//25 106//25
f 46//26 48//26 112//26
f 46//26 112//26 110//26
f 103//25 101//25 165//25
f 103//25 165//25 167//25
f 83//25 81//25 145//25
f 83//25 145//25 147//25
f 82//26 84//26 148//26
f 82//26 148//26 146//26
f 78//26 80//26 144//26
f 78//26 144//26 142//26
f 73//25 71//25 135//25
f 73//25 135//25 137//25
f 45//25 43//25 105//25
f 45//25 105//25 109//25
f 81//25 79//25 143//25
f 81//25 143//25 145//25
f 65//25 63//25 127//25
f 65//25 127//25 129//25
f 102//26 104//26 168//26
f 102//26 168//26 166//26
f 71//25 69//25 133//25
f 71//25 133//25 135//25
f 44//26 46//26 110//26
f 44//26 110//26 108//26
f 96//26 98//26 162//26
f 96//26 162//26 160//26
f 80//26 82//26 146//26
f 80//26 146//26 144//26
f 62//26 64//26 128//26
f 62//26 128//26 126//26
f 90//26 92//26 156//26
f 90//26 156//26 154//26
f 69//25 67//25 131//25
f 69//25 131//25 133//25
f 88//26 90//26 154//26
f 88//26 154//26 152//26
f 79//25 77//25 141//25
f 79//25 141//25 143//25
f 72//26 74//26 138//26
f 72//26 138//26 136//26
f 99//25 97//25 161//25
f 99//25 161//25 163//25
f 97//25 95//25 159//25
f 97//25 159//25 161//25
f 98//26 100//26 164//26
f 98//26 164//26 162//26
f 94//26 96//26 160//26
f 94//26 160//26 158//26
f 87//25 85//25 149//25
f 87//25 149//25 151//25
f 41//26 44//26 108//26
f 41//26 108//26 107//26
f 60//26 62//26 126//26
f 60//26 126//26 124//26
f 100//26 102//26 166//26
f 100//26 166//26 164//26
f 91//25 89//25 153//25
f 91//25 153//25 155//25
f 64//26 66//26 130//26
f 64//26 130//26 128//26
f 61//25 59//25 123//25
f 61//25 123//25 125//25
f 86//26 88//26 152//26
f 86//26 152//26 150//26
f 66//26 68//26 132//26
f 66//26 132//26 130//26
f 104//26 41//26 107//26
f 104//26 107//26 168//26
f 68//26 70//26 134//26
f 68//26 134//26 132//26
